<svg xmlns="http://www.w3.org/2000/svg" id="Layer_1" data-name="Layer 1" viewBox="0 0 2340.75 448.5"><defs><style>.cls-1{fill:#fff}</style></defs><path d="M470.46 342.09q-12.16-.19-17.52-6-5.37-6-5.36-15.66 0-13.62 9.89-20.21t30.51-6.6h4.95a45 45 0 0 1 4.54.21v32.37a33.06 33.06 0 0 1-11.55 11.54 30.29 30.29 0 0 1-15.66 4.13v-.21Zm41.44 9.49 5.77-8.25a14.27 14.27 0 0 1-7.83-8.87q-1.65-6-1.24-18.34l.83-37.94a66 66 0 0 0-.43-12.78 34.39 34.39 0 0 0-3.51-12 20.7 20.7 0 0 0-9.69-9.69q-6.39-3.3-15.87-3.3a63 63 0 0 0-21.45 3.71 85.17 85.17 0 0 0-19.79 10.31l5.77 8.25a54.53 54.53 0 0 1 15.26-9.07 51.54 51.54 0 0 1 18.56-3.92 22.31 22.31 0 0 1 9.07 1.65 19.45 19.45 0 0 1 6.39 4.53 14.13 14.13 0 0 1 3.3 7.22 69.52 69.52 0 0 1 .82 12v9.69c-.55 0-1.72-.07-3.5-.21h-5.76q-25.16 0-39.37 9.07t-14.44 27a34.13 34.13 0 0 0 2.89 13.81q2.88 6.6 10.31 10.93 7.42 4.13 20.2 4.33a38.26 38.26 0 0 0 16.5-3.5 41.71 41.71 0 0 0 14-10.72 20.39 20.39 0 0 0 4.53 9.48 18 18 0 0 0 8.46 5.57ZM546.73 348.28h11.55V278.8a20.52 20.52 0 0 1 7.42-17.53 29.66 29.66 0 0 1 8.66-6.18 22.54 22.54 0 0 1 9.48-2.06 16 16 0 0 1 2.48.2 16.2 16.2 0 0 1 2.06.83l4.53-12.37a12.34 12.34 0 0 0-2.06-.62 15 15 0 0 0-3.71-.41 25.82 25.82 0 0 0-8.86 1.65 33.81 33.81 0 0 0-9.08 5.15 58.64 58.64 0 0 0-6.18 5.36 41.92 41.92 0 0 0-4.95 6.39 49.68 49.68 0 0 0-1.24-12.57 23 23 0 0 0-1.85-5.37l-11.55 2.89c.41.55 1 2.48 1.86 5.77s1.24 8.39 1.24 15.26v82.68ZM631.46 349.31h11.75L682 243.13h-12.4l-28 79.79q-1.65 4.53-2.68 8.25a23.43 23.43 0 0 0-1 4.94h-.42q-.4-1.23-1.44-4.94a82.18 82.18 0 0 0-2.27-8.05l-28-81.64-11.86 2.52 37.53 105.55ZM773.49 351.58l7.63-7.63a17.8 17.8 0 0 1-4.12-7.84 61.85 61.85 0 0 1-1.24-14.22v-80.41l-11.54 2.06v78.55a40.58 40.58 0 0 1-13.2 14 29.73 29.73 0 0 1-16.08 4.95 25.09 25.09 0 0 1-8-1.24 18.78 18.78 0 0 1-6.18-3.29 16.52 16.52 0 0 1-5-6.81 31 31 0 0 1-1.65-10.92v-77.51L703 243.75v78.34a32.42 32.42 0 0 0 1.24 9.28 20.62 20.62 0 0 0 3.09 7.22 22 22 0 0 0 9.28 9.07q6.2 3.3 15.26 3.3a41.93 41.93 0 0 0 19-4.33 39.84 39.84 0 0 0 14.84-12.37 30.32 30.32 0 0 0 2.89 10.1 25.54 25.54 0 0 0 5.77 7.22v-.21ZM834.72 351.16a46.39 46.39 0 0 0 9.07-.82 29.41 29.41 0 0 0 7.42-2.47l-1.65-7.43a21.24 21.24 0 0 1-4.74 1.65 26.15 26.15 0 0 1-6.19.62q-7.83 0-11.13-4.33t-3.3-13v-73h22.68l3.71-8.66h-26q0-7 .42-13.2c.27-4.12.55-7.62.82-10.51a33.77 33.77 0 0 1 .82-5.77l-12.16 2.47a31.65 31.65 0 0 0-.82 5.57c-.28 3-.55 6.46-.83 10.31s-.41 7.62-.41 11.34h-13.59v8.66h13.61v76.07a31.8 31.8 0 0 0 2.06 12.17 15.18 15.18 0 0 0 6.19 7.42 22.28 22.28 0 0 0 5.77 2.68 21.76 21.76 0 0 0 7.63 1.24V352ZM873.88 348.28h12V241.07l-12 1.86v105.35Zm6.18-129.07a8.75 8.75 0 0 0 6.39-2.67 8.31 8.31 0 0 0 2.68-6.4 8.53 8.53 0 0 0-2.68-6.59 9.11 9.11 0 0 0-6.39-2.48 9 9 0 0 0-6.6 2.68 9 9 0 0 0 0 12.79 9 9 0 0 0 6.6 2.67ZM945.2 351.16a46.32 46.32 0 0 0 9.07-.82 29.41 29.41 0 0 0 7.42-2.47l-1.69-7.43a20.89 20.89 0 0 1-4.74 1.65 26.15 26.15 0 0 1-6.19.62q-7.83 0-11.13-4.33t-3.3-13v-73h22.68l3.71-8.66h-26q0-7 .42-13.2c.27-4.12.55-7.62.82-10.51a33.39 33.39 0 0 1 .83-5.77l-12.1 2.5a32.68 32.68 0 0 0-.82 5.57c-.28 3-.55 6.46-.83 10.31s-.41 7.62-.41 11.34h-13.62v8.66h13.61v76.07a31.8 31.8 0 0 0 2.07 12.17 15.18 15.18 0 0 0 6.19 7.42A22.44 22.44 0 0 0 937 351a21.76 21.76 0 0 0 7.63 1.24V352ZM991 287.25q1-18.76 8.65-28a24.63 24.63 0 0 1 19.8-9.48 26.51 26.51 0 0 1 12.78 2.89 23.8 23.8 0 0 1 8.45 8 35.79 35.79 0 0 1 3.92 10.52 70.83 70.83 0 0 1 1.44 15.67h-55.29v-.21Zm31.75 63.09a51.89 51.89 0 0 0 18.34-3.09 44.5 44.5 0 0 0 15.06-8.66l-4.54-7.42a36.4 36.4 0 0 1-12 7.42 44.2 44.2 0 0 1-14.43 2.27 36.88 36.88 0 0 1-15.88-3.3 27.66 27.66 0 0 1-11.3-9.69 41.78 41.78 0 0 1-4.75-11.14 61.62 61.62 0 0 1-2.06-15.05v-5.36h67.63v-2.47a127.77 127.77 0 0 0-1.24-19.38 45.6 45.6 0 0 0-3.92-13.2 36.3 36.3 0 0 0-6.8-9.48 36.67 36.67 0 0 0-11.34-7.63 40.45 40.45 0 0 0-32 .83 39.56 39.56 0 0 0-12.78 10.1 50.37 50.37 0 0 0-9.28 17.11q-3.09 9.48-3.09 22.89 0 16.7 5.15 29.07a43.81 43.81 0 0 0 15.05 19.38q9.9 7 24.33 7ZM1114.85 342.09q-12.16-.19-17.52-6-5.37-6-5.36-15.66 0-13.62 9.89-20.21t30.52-6.6h4.94a45 45 0 0 1 4.54.21v32.37a33.06 33.06 0 0 1-11.55 11.54 30.29 30.29 0 0 1-15.66 4.13v-.21Zm41.44 9.49 5.77-8.25a14.27 14.27 0 0 1-7.83-8.87q-1.65-6-1.24-18.34l.83-37.94a65.16 65.16 0 0 0-.41-12.78 34.39 34.39 0 0 0-3.51-12 20.7 20.7 0 0 0-9.69-9.69q-6.39-3.3-15.87-3.3a63 63 0 0 0-21.45 3.71 85.17 85.17 0 0 0-19.79 10.31l5.77 8.25a54.53 54.53 0 0 1 15.26-9.07 51.54 51.54 0 0 1 18.56-3.92 22.31 22.31 0 0 1 9.07 1.65 19.45 19.45 0 0 1 6.39 4.53 14.13 14.13 0 0 1 3.3 7.22 69.52 69.52 0 0 1 .82 12v9.69c-.55 0-1.72-.07-3.5-.21H1133q-25.14 0-39.37 9.07t-14.44 27a34.13 34.13 0 0 0 2.89 13.81q2.88 6.6 10.31 10.93 7.42 4.13 20.2 4.33a38.26 38.26 0 0 0 16.5-3.5 41.71 41.71 0 0 0 14-10.72 20.39 20.39 0 0 0 4.53 9.48 18 18 0 0 0 8.46 5.57ZM1227 340a29 29 0 0 1-14.23-3.3 25.94 25.94 0 0 1-9.9-10.1 37.27 37.27 0 0 1-4.12-13 112 112 0 0 1-1.24-17.32 79.13 79.13 0 0 1 2.07-19.79 41 41 0 0 1 6.39-13.81 25.27 25.27 0 0 1 9.69-8.66 27.21 27.21 0 0 1 12.37-2.89q10.1 0 16.7 3.3a26.86 26.86 0 0 1 10.31 8.66v61a28.52 28.52 0 0 1-10.31 11.13q-7 4.53-17.73 4.74Zm-.42 9.9a40.18 40.18 0 0 0 16.5-3.3 32.42 32.42 0 0 0 12.57-10.52 69 69 0 0 0 1.24 7.63 25.46 25.46 0 0 0 1.44 4.95h11.55a53.05 53.05 0 0 1-2.47-12 189.94 189.94 0 0 1-.83-20V196.33l-11.58-2.06v61a31.86 31.86 0 0 0-12.17-9.89 39.08 39.08 0 0 0-16.9-3.51 34.72 34.72 0 0 0-23.3 8.66 45.45 45.45 0 0 0-13.61 19q-4.53 11.55-4.53 27.22a89.06 89.06 0 0 0 2.47 21.64 50.3 50.3 0 0 0 7.22 16.5 35.55 35.55 0 0 0 13.4 11.34 40.55 40.55 0 0 0 18.76 4.12ZM1373.78 351.58l7.63-7.63a17.81 17.81 0 0 1-4.13-7.84 62.52 62.52 0 0 1-1.23-14.22v-80.41l-11.55 2.06v78.55a40.4 40.4 0 0 1-13.2 14 29.73 29.73 0 0 1-16.08 4.95 25.18 25.18 0 0 1-8-1.24 18.88 18.88 0 0 1-6.18-3.29 16.52 16.52 0 0 1-5-6.81 31 31 0 0 1-1.65-10.92v-77.51l-11.13 2.48v78.34a32.43 32.43 0 0 0 1.23 9.28 20.44 20.44 0 0 0 3.1 7.22 21.88 21.88 0 0 0 9.27 9.07q6.2 3.3 15.26 3.3a41.9 41.9 0 0 0 19-4.33 39.84 39.84 0 0 0 14.84-12.37 30.32 30.32 0 0 0 2.89 10.1 25.72 25.72 0 0 0 5.77 7.22v-.21ZM1439.12 350.75q17.12-.21 27-9.07 9.9-8.65 10.1-23.5 0-10.73-6.39-17.94-6.6-7.22-20.82-10.1l-13.61-2.89q-8.87-1.86-13.19-6.18-4.34-4.54-4.33-12 0-8.66 5.77-14t16.9-5.57a43.58 43.58 0 0 1 13.41 2.06 64.45 64.45 0 0 1 12.16 5.36l4.54-8.45a53.73 53.73 0 0 0-14-5.77 58.43 58.43 0 0 0-16.29-2.27q-16.29.21-25.57 8.45t-9.48 21.65q0 11.13 6.6 18.15t19 9.48l13.2 2.47q10.31 2.27 14.84 7.22a17.58 17.58 0 0 1 4.54 12.37q0 9.69-6.39 15.46-6.6 5.78-18.14 5.77a59.89 59.89 0 0 1-17.37-2.45 63 63 0 0 1-15.47-7l-4.53 8.45a62.89 62.89 0 0 0 16.9 7.43 72 72 0 0 0 19.59 2.68v-.21ZM1510.44 287.25q1-18.76 8.66-28a24.61 24.61 0 0 1 19.8-9.48 26.56 26.56 0 0 1 12.78 2.89 23.8 23.8 0 0 1 8.45 8 35.79 35.79 0 0 1 3.92 10.52 70.83 70.83 0 0 1 1.44 15.67h-55.25v-.21Zm31.75 63.09a51.91 51.91 0 0 0 18.35-3.09 44.36 44.36 0 0 0 15-8.66l-4.53-7.42a36.5 36.5 0 0 1-12 7.42 44.2 44.2 0 0 1-14.43 2.27 36.88 36.88 0 0 1-15.88-3.3 27.75 27.75 0 0 1-11.34-9.69 42.1 42.1 0 0 1-4.74-11.14 61.14 61.14 0 0 1-2.06-15.05v-5.36h67.62v-2.47a127.92 127.92 0 0 0-1.23-19.38 45.6 45.6 0 0 0-3.92-13.2 36.3 36.3 0 0 0-6.8-9.48 36.67 36.67 0 0 0-11.34-7.63 40.45 40.45 0 0 0-32 .83 39.56 39.56 0 0 0-12.78 10.1 50.2 50.2 0 0 0-9.11 17.11q-3.09 9.48-3.09 22.89 0 16.7 5.15 29.07a43.74 43.74 0 0 0 15 19.38q9.9 7 24.33 7ZM1654.53 348.28h12V241.07l-12 1.86v105.35Zm6.19-129.07a8.75 8.75 0 0 0 6.39-2.67 8.31 8.31 0 0 0 2.68-6.4 8.53 8.53 0 0 0-2.68-6.59 9.11 9.11 0 0 0-6.39-2.48 9 9 0 0 0-6.6 2.68 9 9 0 0 0 0 12.79 9 9 0 0 0 6.6 2.67ZM1703.59 348.28h11.13v-80.82a53.44 53.44 0 0 1 15.26-12q8.44-4.32 15.87-4.33a22.4 22.4 0 0 1 8.25 1.45 13.25 13.25 0 0 1 5.77 3.5 19.08 19.08 0 0 1 3.71 6.8 38.69 38.69 0 0 1 1.24 11.14v74.22h11.55v-80a24.73 24.73 0 0 0-4.13-14.43 21.88 21.88 0 0 0-9.27-9.07 30.26 30.26 0 0 0-14.44-3.3 38 38 0 0 0-17.52 4.33 59.88 59.88 0 0 0-16.49 12.58 50.41 50.41 0 0 0-1.45-11.55 44.18 44.18 0 0 0-1.65-5.36l-11.13 2.89a38.34 38.34 0 0 1 2.47 7.42 58.38 58.38 0 0 1 1.24 13.65v82.88ZM1838.82 350.75q17.12-.21 27-9.07 9.9-8.65 10.11-23.5 0-10.73-6.4-17.94-6.58-7.22-20.82-10.1l-13.61-2.89q-8.86-1.86-13.19-6.18-4.34-4.54-4.33-12 0-8.66 5.77-14t16.91-5.57a43.52 43.52 0 0 1 13.4 2.06 64.45 64.45 0 0 1 12.16 5.36l4.54-8.45a53.58 53.58 0 0 0-14-5.77 58.33 58.33 0 0 0-16.29-2.27q-16.29.21-25.56 8.45t-9.51 21.67q0 11.13 6.6 18.15t19 9.48l13.19 2.47q10.32 2.27 14.85 7.22a17.62 17.62 0 0 1 4.53 12.37q0 9.69-6.39 15.46-6.6 5.78-18.14 5.77a59.94 59.94 0 0 1-17.34-2.47 63 63 0 0 1-15.46-7l-4.54 8.45a62.82 62.82 0 0 0 16.91 7.43 71.9 71.9 0 0 0 19.58 2.68v-.21ZM1925.82 351.16a46.32 46.32 0 0 0 9.07-.82 29.41 29.41 0 0 0 7.42-2.47l-1.65-7.43a20.89 20.89 0 0 1-4.74 1.65 26.15 26.15 0 0 1-6.19.62q-7.83 0-11.13-4.33t-3.3-13v-73h22.7l3.71-8.66h-26q0-7 .42-13.2c.27-4.12.55-7.62.82-10.51a33.39 33.39 0 0 1 .83-5.77l-12.17 2.47a32.68 32.68 0 0 0-.82 5.57c-.28 3-.55 6.46-.83 10.31s-.41 7.62-.41 11.34h-13.61v8.66h13.61v76.07a31.8 31.8 0 0 0 2.06 12.17 15.18 15.18 0 0 0 6.19 7.42 22.44 22.44 0 0 0 5.77 2.68 21.76 21.76 0 0 0 7.63 1.24V352ZM1965 348.28h12V241.07l-12 1.86v105.35Zm6.18-129.07a8.72 8.72 0 0 0 6.39-2.67 8.31 8.31 0 0 0 2.68-6.4 8.53 8.53 0 0 0-2.68-6.59 9.08 9.08 0 0 0-6.39-2.48 9 9 0 0 0-6.6 2.68 9 9 0 0 0 0 12.79 9 9 0 0 0 6.58 2.67ZM2036.3 351.16a46.32 46.32 0 0 0 9.07-.82 29.41 29.41 0 0 0 7.42-2.47l-1.65-7.43a20.89 20.89 0 0 1-4.74 1.65 26.12 26.12 0 0 1-6.18.62q-7.85 0-11.14-4.33t-3.3-13v-73h22.68l3.71-8.66h-26q0-7 .41-13.2c.27-4.12.55-7.62.82-10.51a33.39 33.39 0 0 1 .83-5.77l-12.17 2.47a32.68 32.68 0 0 0-.82 5.57c-.28 3-.55 6.46-.83 10.31s-.41 7.62-.41 11.34h-13.6v8.66h13.6v76.07a31.8 31.8 0 0 0 2.06 12.17 15.18 15.18 0 0 0 6.19 7.42 22.44 22.44 0 0 0 5.77 2.68 21.76 21.76 0 0 0 7.63 1.24V352ZM2145.56 351.58l7.63-7.63a17.81 17.81 0 0 1-4.13-7.84 62.52 62.52 0 0 1-1.23-14.22v-80.41l-11.55 2.06v78.55a40.4 40.4 0 0 1-13.2 14 29.73 29.73 0 0 1-16.08 4.95 25.18 25.18 0 0 1-8-1.24 18.88 18.88 0 0 1-6.18-3.29 16.52 16.52 0 0 1-5-6.81 31 31 0 0 1-1.65-10.92v-77.51l-11.13 2.48v78.34a32.43 32.43 0 0 0 1.23 9.28 20.44 20.44 0 0 0 3.1 7.22 21.88 21.88 0 0 0 9.27 9.07q6.2 3.3 15.26 3.3a41.9 41.9 0 0 0 19-4.33 39.84 39.84 0 0 0 14.84-12.37 30.32 30.32 0 0 0 2.89 10.1 25.72 25.72 0 0 0 5.77 7.22v-.21ZM2254.61 351.58l7.63-7.63a17.81 17.81 0 0 1-4.13-7.84 62.52 62.52 0 0 1-1.23-14.22v-80.41l-11.55 2.06v78.55a40.47 40.47 0 0 1-13.19 14 29.79 29.79 0 0 1-16.08 4.95 25.2 25.2 0 0 1-8-1.24 18.88 18.88 0 0 1-6.18-3.29 16.52 16.52 0 0 1-4.95-6.81 31 31 0 0 1-1.65-10.92v-77.51l-11.13 2.48v78.34a32.07 32.07 0 0 0 1.24 9.28 20.26 20.26 0 0 0 3.09 7.22 21.85 21.85 0 0 0 9.28 9.07q6.18 3.3 15.25 3.3a41.87 41.87 0 0 0 19-4.33 39.84 39.84 0 0 0 14.84-12.37 30.56 30.56 0 0 0 2.89 10.1 25.9 25.9 0 0 0 5.77 7.22v-.21ZM2315.83 351.16a46.32 46.32 0 0 0 9.07-.82 29.41 29.41 0 0 0 7.42-2.47l-1.65-7.43a20.89 20.89 0 0 1-4.74 1.65 26.12 26.12 0 0 1-6.18.62q-7.85 0-11.14-4.33t-3.3-13v-73H2328l3.71-8.66h-26q0-7 .41-13.2c.27-4.12.55-7.62.82-10.51a33.39 33.39 0 0 1 .83-5.77l-12.17 2.47a33.79 33.79 0 0 0-.82 5.57c-.27 3-.55 6.46-.82 10.31s-.42 7.62-.42 11.34H2280v8.66h13.6v76.07a31.8 31.8 0 0 0 2.06 12.17 15.18 15.18 0 0 0 6.19 7.42 22.44 22.44 0 0 0 5.77 2.68 21.76 21.76 0 0 0 7.63 1.24V352ZM495.84 21.73A2.55 2.55 0 0 0 493.1 20a1.7 1.7 0 0 0-1.42.94c-.26.41-.58.88-1 1.42a9.16 9.16 0 0 1-1.33 1.4 3.37 3.37 0 0 1-1.67.75 29.63 29.63 0 0 1-3 .24c-4.34.14-8.41.07-12.32.15-6.65.16-14 .14-21.56-.05-4.1-.1-8.24-.25-12.28-.45a4 4 0 0 1-2.05-.59 5.82 5.82 0 0 1-1.22-1.12c-.32-.43-.6-.8-.83-1.13a1.6 1.6 0 0 0-1.36-.77 3.37 3.37 0 0 0-2.41.83 4.49 4.49 0 0 0-1.22 1.89 8.89 8.89 0 0 0-.47 2.4v.32c-.07.72-.11 1.4-.17 2a48.54 48.54 0 0 1-1.28 7.95 18.49 18.49 0 0 0-.83 4.72 2.29 2.29 0 0 0 .73 2 2.93 2.93 0 0 0 1.9.55c.52 0 1-.47 1.76-1.7.59-1 1.2-2.06 1.79-3.19l1.7-3.37a9 9 0 0 1 1.17-1.93 10 10 0 0 1 3.9-2.41 14.76 14.76 0 0 1 4.3-.62h6.2a28.24 28.24 0 0 1 4.42.33c1.6.26 1.78.71 1.79.78a13.55 13.55 0 0 1 .13 1.76q.06 1.32.06 1.83v48.49a32.5 32.5 0 0 1-.28 4.6 7.07 7.07 0 0 1-1.1 2.89 5.15 5.15 0 0 1-2.37 1.74 17.26 17.26 0 0 1-4.61 1 4.15 4.15 0 0 1-1.14.08 5.88 5.88 0 0 0-2.13.4 2.06 2.06 0 0 0-1.29 2.14c0 1.48 1 1.76 1.39 1.79a14.64 14.64 0 0 0 1.72.12c2.44 0 4.86-.08 7.22-.26a112.51 112.51 0 0 1 15 0c2.62.18 5.29.26 8 .26a16.35 16.35 0 0 0 2.11-.12c.81-.11 1.23-.88 1.23-2.31 0-.66-.3-1.77-2.31-2l-4-.45a12.69 12.69 0 0 1-4-1.15 4.1 4.1 0 0 1-2.15-3.3 18.52 18.52 0 0 1-.35-3.13v-3.17c.13-5.88.12-11.82-.06-17.65s-.17-11.73 0-17.6l.2-12.23a15.7 15.7 0 0 1 .25-3.32 2.52 2.52 0 0 1 .52-1.31.77.77 0 0 1 .57-.23 25.87 25.87 0 0 0 3.38 0 58.37 58.37 0 0 1 6.89.1 38.82 38.82 0 0 1 4.21.48 11.75 11.75 0 0 1 3.27 1 3.52 3.52 0 0 1 1.66 1.62 7.05 7.05 0 0 1 .46 3c-.06 1.13-.15 2.17-.24 3.13a8.45 8.45 0 0 0 .05 2.6 1.81 1.81 0 0 0 2 1.42c.88 0 2.09-.44 2.73-2.64a30.63 30.63 0 0 0 1-5.31c.21-2 .42-4.08.59-6.18a19 19 0 0 1 .91-4.88 4.15 4.15 0 0 0 0-2.82M539 59.75c-.11 0-.23.08-.3.12-4.1 0-7.3 0-9.57.05s-4 0-5.14 0h-1.79c1.19-2.81 2.17-5.18 2.94-7.05.88-2.07 1.65-3.95 2.33-5.63s1.32-3.26 2-4.83c.55-1.25 1.16-2.69 1.87-4.31.13.37.32.87.55 1.51.56 1.6 1.24 3.55 2.06 5.85s1.66 4.79 2.6 7.43c.86 2.4 1.66 4.67 2.46 6.82m32.46 33.89a22 22 0 0 0-2.88-.67 18.7 18.7 0 0 1-3.14-.88 3.93 3.93 0 0 1-2.23-2.2c-3.37-7-6.64-14.19-9.72-21.3s-5.94-14.25-8.79-21.63L540 35.3q-2.41-5.89-4.71-11.6a6.47 6.47 0 0 0-.68-1.19 1.88 1.88 0 0 0-1.59-.79 1.76 1.76 0 0 0-1.55.6 4.11 4.11 0 0 0-.53 1.07q-3.71 9.11-7.41 18.13c-2.47 6-4.94 12.06-7.41 18.13l-4.35 10.67c-1.41 3.43-2.83 7-4.26 10.65-.21.47-.49 1.21-.85 2.17s-.77 2-1.21 2.93-.85 2-1.25 2.85a7.87 7.87 0 0 1-.85 1.67 3.48 3.48 0 0 1-1.81 1.57 18.79 18.79 0 0 1-2.34.56 7.66 7.66 0 0 0-2.12.67 2.3 2.3 0 0 0-1.08 2.24 2.39 2.39 0 0 0 .46 1.46 1.78 1.78 0 0 0 1.55.77 34.22 34.22 0 0 0 4.24-.26 46.51 46.51 0 0 1 10.52.09 61.85 61.85 0 0 0 6.58.36 2.63 2.63 0 0 0 1.81-.7 2.36 2.36 0 0 0 .8-1.81 2.4 2.4 0 0 0-2.08-2.46 36.39 36.39 0 0 0-3.63-.56 12.94 12.94 0 0 1-3.4-.76c-.51-.19-1.2-.62-1.2-2.14a14.72 14.72 0 0 1 .62-2.64c.45-1.52 1-3.45 1.76-5.68s1.61-4.8 2.64-7.52 2.07-5.33 3.21-8.07a23.4 23.4 0 0 1 2.85-.31c2.66-.13 5.45-.11 8-.05 1.31 0 2.37.05 3.16.05h1.91c1.1 0 2.19 0 3.24.15a3.27 3.27 0 0 1 2 .78 4.29 4.29 0 0 1 .4.81c.24.54.53 1.15.85 1.79 1 2.4 2 4.75 2.91 7s1.78 4.32 2.49 6.19l1.89 4.88c.52 1.34.89 2.34 1.12 3.1 0 .18.11.36.17.54a1.88 1.88 0 0 1 .07.5c0 1.09-.51 1.38-1 1.5a12.92 12.92 0 0 1-3 .47c-1.21.08-2.3.18-3.2.31-1.68.25-1.94 1.31-1.94 1.92a2.48 2.48 0 0 0 .92 2 2.86 2.86 0 0 0 2 .76c2.37 0 4.71-.09 7-.3a54.57 54.57 0 0 1 11.64 0 44.6 44.6 0 0 0 4.9.3h1.09a7.49 7.49 0 0 0 2.26-.38 1.87 1.87 0 0 0 1.46-1.83 2.16 2.16 0 0 0-1.63-2.24M623.89 51.15a11.48 11.48 0 0 1-3.8 4.58 15.08 15.08 0 0 1-5.81 2.3 42.78 42.78 0 0 1-7.42.65 8.3 8.3 0 0 1-2.46-.27 1.07 1.07 0 0 1-.71-.64 3.35 3.35 0 0 1-.17-1.51c0-.73.06-1.57.06-2.59 0-2.67 0-5.67.09-9s.1-6.35.1-9v-3.4a4.76 4.76 0 0 1 1-3.25c.41-.47 1.46-1 4.14-1a20.59 20.59 0 0 1 6.61 1 14.31 14.31 0 0 1 5.14 3 13.9 13.9 0 0 1 3.34 4.77 17.22 17.22 0 0 1 1.23 6.77 17.92 17.92 0 0 1-1.37 7.59M653 98.39a10.92 10.92 0 0 1-2.26-.76 15.33 15.33 0 0 1-7.12-3.6 36.37 36.37 0 0 1-5.72-6.54 69.16 69.16 0 0 1-4.65-8c-1.42-2.84-2.71-5.53-4-8.07a55.63 55.63 0 0 0-3.74-6.63 11.19 11.19 0 0 0-3-3.18 45.9 45.9 0 0 0 4.25-2.42 27.09 27.09 0 0 0 4.91-4 19.55 19.55 0 0 0 3.62-5.13 14.18 14.18 0 0 0 1.41-6.21 20 20 0 0 0-2.29-10 19.15 19.15 0 0 0-5.69-6.26 21.18 21.18 0 0 0-7.33-3.19 34.18 34.18 0 0 0-7.23-.87c-2.59 0-5.19.06-7.69.15s-5.09.16-7.64.16h-8.7c-.73 0-1.46-.05-2.22-.1a14.91 14.91 0 0 0-4.58.14 2.07 2.07 0 0 0-1.54 2.28A1.77 1.77 0 0 0 583 27.9a8.28 8.28 0 0 0 2.24.44c.83.06 1.71.14 2.65.2a9.91 9.91 0 0 1 2.51.52 3.61 3.61 0 0 1 1.74 1.34 4.6 4.6 0 0 1 .68 2.74c0 5.6-.05 11.29-.15 16.91s-.15 11.41-.15 16.94v20.63a5.33 5.33 0 0 1-.7 3 5.17 5.17 0 0 1-1.82 1.69 8.72 8.72 0 0 1-2.48.87l-2.64.45a14 14 0 0 0-2.14.47 1.59 1.59 0 0 0-1.23 1.53c0 1.22.2 1.87.67 2.17a4 4 0 0 0 2.05.34 60.82 60.82 0 0 0 6.22-.3 67.22 67.22 0 0 1 13.15.06c2.39.23 4.85.36 7.27.36a11.91 11.91 0 0 0 3.2-.34 2.09 2.09 0 0 0 1.41-2.29 1.56 1.56 0 0 0-1.13-1.63 6.06 6.06 0 0 0-1.69-.22 2.09 2.09 0 0 1-.52 0h-.16c-1.43-.28-2.62-.49-3.65-.63a6.88 6.88 0 0 1-2.54-.73 3.5 3.5 0 0 1-1.54-1.63 8.35 8.35 0 0 1-.58-3.62V66.5a6.43 6.43 0 0 1 .38-2.91c.05-.12.4-.5 1.91-.5a9.48 9.48 0 0 1 5.7 1.68 18.34 18.34 0 0 1 4.16 4.42 35.3 35.3 0 0 1 3.25 6c1 2.25 2 4.5 3.14 6.6a36.36 36.36 0 0 0 8.92 13.45 28.18 28.18 0 0 0 14.6 7.07c.47.06 1.06.13 1.74.19a20 20 0 0 0 2.06.11 12.57 12.57 0 0 0 3.81-.44l.23-.15a2.91 2.91 0 0 0 1.07-1.93c0-.52-.19-1.45-1.63-1.75M721.79 20a1.67 1.67 0 0 0-1.42.94c-.27.41-.59.89-1 1.42a11.55 11.55 0 0 1-1.32 1.4 3.41 3.41 0 0 1-1.68.75c-1 .13-2 .21-3 .25-4.34.13-8.42.06-12.33.14-6.65.16-14 .14-21.56-.05-4.1-.09-8.24-.25-12.28-.45a4.06 4.06 0 0 1-2-.58 5.88 5.88 0 0 1-1.2-1.12c-.33-.43-.6-.8-.83-1.13a1.6 1.6 0 0 0-1.36-.77 3.36 3.36 0 0 0-2.42.84 4.72 4.72 0 0 0-1.22 1.88 10.21 10.21 0 0 0-.48 2.4v.6c0 .61-.08 1.19-.14 1.77a51.88 51.88 0 0 1-1.29 7.94 18.85 18.85 0 0 0-.82 4.73 2.31 2.31 0 0 0 .73 2 2.93 2.93 0 0 0 1.89.55c.53 0 1-.47 1.78-1.69.58-1 1.18-2.07 1.77-3.2s1.17-2.29 1.7-3.36a7.27 7.27 0 0 1 1.18-1.93 9.6 9.6 0 0 1 3.9-2.41 14.39 14.39 0 0 1 4.3-.63h6.19a28.06 28.06 0 0 1 4.42.33c1.61.27 1.79.71 1.8.78a15.41 15.41 0 0 1 .13 1.76c0 .89.06 1.49.06 1.83v48.43a28.45 28.45 0 0 1-.31 4.61 6.59 6.59 0 0 1-1.09 2.89 5.13 5.13 0 0 1-2.39 1.73 17.09 17.09 0 0 1-4.56 1 5 5 0 0 1-1.15.08 6 6 0 0 0-2.15.39 2.11 2.11 0 0 0-1.28 2.13c0 1.48 1 1.76 1.4 1.8a14.79 14.79 0 0 0 1.72.12c2.45 0 4.86-.08 7.21-.25a110.86 110.86 0 0 1 15 0c2.62.17 5.32.25 8 .25a16 16 0 0 0 2.09-.12c.81-.11 1.22-.88 1.22-2.3 0-.66-.29-1.79-2.29-2l-4-.45a12.47 12.47 0 0 1-4-1.15 4.13 4.13 0 0 1-2.16-3.31 17.39 17.39 0 0 1-.33-3.11q-.06-1.59-.06-3.18c.13-5.88.11-11.82-.06-17.64s-.17-11.81 0-17.62l.16-12.29a17.49 17.49 0 0 1 .25-3.32 2.63 2.63 0 0 1 .53-1.3c.15-.15.26-.17.57-.23a27.18 27.18 0 0 0 3.37 0 58.29 58.29 0 0 1 6.91.08 35.94 35.94 0 0 1 4.19.5 11.37 11.37 0 0 1 3.26 1 3.51 3.51 0 0 1 1.66 1.72 7.19 7.19 0 0 1 .45 2.95 98.04 98.04 0 0 1-.24 3.14 8.09 8.09 0 0 0 0 2.59 1.81 1.81 0 0 0 2 1.43c.9 0 2.11-.45 2.75-2.64a32.1 32.1 0 0 0 1-5.3c.23-2 .43-4.09.6-6.18a19.34 19.34 0 0 1 .92-4.89 4.15 4.15 0 0 0 0-2.82 2.56 2.56 0 0 0-2.69-1.73M812.09 23.85h-.21c-1.76 0-3.6.06-5.43.15a83.16 83.16 0 0 1-10.59 0c-1.8-.15-3.58-.21-5.31-.21a5.8 5.8 0 0 0-1.66.24c-.44.1-1.15.51-1.15 1.79a2.65 2.65 0 0 0 1.26 2.39 7.68 7.68 0 0 0 2.49.88c.91.16 1.84.32 2.79.45a3.61 3.61 0 0 1 2 .87 4.21 4.21 0 0 1 1 2.56 32.7 32.7 0 0 1 .31 4.78c0 1.8 0 3.65-.1 5.58s-.12 3.68-.12 5.23V70a27.12 27.12 0 0 1-.58 5.71 34.13 34.13 0 0 1-2.46 8.41 15.63 15.63 0 0 1-4 5.45 14.67 14.67 0 0 1-5.95 3 34.72 34.72 0 0 1-8.63.92 30.73 30.73 0 0 1-7.64-.87 13.52 13.52 0 0 1-5.8-3.06 15.59 15.59 0 0 1-3.95-6.08 34 34 0 0 1-1.92-10c-.12-2-.22-4.1-.25-6.18s0-4.14 0-6.21V39.48c0-1.11.11-2.26.21-3.28s.2-2 .34-2.87a8.76 8.76 0 0 1 .45-1.84 2.94 2.94 0 0 1 2-1.76c1.07-.32 2.19-.59 3.28-.8a22.21 22.21 0 0 0 3.12-.72 2.35 2.35 0 0 0 1.82-2.38 1.88 1.88 0 0 0-1.73-1.91 12.5 12.5 0 0 0-2.11-.21c-2.33 0-4.65.1-6.92.31a72.55 72.55 0 0 1-13.1 0 65.54 65.54 0 0 0-6.42-.31 2.35 2.35 0 0 0-2.63 2.52 1.86 1.86 0 0 0 .82 1.6 4.1 4.1 0 0 0 1.55.65 8.44 8.44 0 0 0 1.59.2c.51 0 .93.06 1.28.06h1.1a3.48 3.48 0 0 1 2.61.91 6 6 0 0 1 1.36 2.42 11.82 11.82 0 0 1 .46 3.2c0 1.18.07 2.26.07 3.18 0 5.69-.08 11.34-.22 16.8s-.18 11.2-.18 16.86v5.53c0 .61.1 1.23.15 1.84a23.4 23.4 0 0 0 3 9.85 18.93 18.93 0 0 0 6.1 6.32A25 25 0 0 0 762.6 99a48 48 0 0 0 9.84 1 64.18 64.18 0 0 0 8.9-.66 43.1 43.1 0 0 0 8.85-2.34 17.53 17.53 0 0 0 7.69-5.62 26.5 26.5 0 0 0 4-8.05 40.72 40.72 0 0 0 1.56-9.33c.18-3.21.24-6.33.24-9.23V53.93c0-2 0-4.33-.05-7s0-5.23 0-7.68a58 58 0 0 1 .35-6.41c.26-2.38.67-2.68.7-2.7a4.92 4.92 0 0 1 1.72-.41c1-.14 2-.33 3.11-.57a12.54 12.54 0 0 0 2.93-1 2.44 2.44 0 0 0 1.55-2.26c0-.66-.32-1.54-1.82-2.07M903.56 16.8a1.13 1.13 0 0 0 .61.13 6.53 6.53 0 0 0 4.47-1.65 5.79 5.79 0 0 0 1.86-4.47 5.72 5.72 0 0 0-1.71-4.22 6.45 6.45 0 0 0-8.57.08 5.8 5.8 0 0 0-1.69 4.23 6.07 6.07 0 0 0 1.41 3.95 5.22 5.22 0 0 0 3.62 2M883.84 16.82a6.42 6.42 0 0 0 4.25-1.53 5.23 5.23 0 0 0 1.91-4.17 6.23 6.23 0 0 0-1.7-4.22 5.35 5.35 0 0 0-4.16-1.9 6.39 6.39 0 0 0-4.42 1.7 5.61 5.61 0 0 0-1.91 4.3 5.43 5.43 0 0 0 1.8 4.21 6.06 6.06 0 0 0 4.23 1.61M928.5 23.85h-.21c-1.77 0-3.62.06-5.43.15a83.15 83.15 0 0 1-10.59 0c-1.81-.15-3.59-.21-5.31-.21a5.8 5.8 0 0 0-1.66.24c-.44.1-1.15.51-1.15 1.79a2.6 2.6 0 0 0 1.27 2.47 7.59 7.59 0 0 0 2.49.88c.9.16 1.82.32 2.78.45a3.51 3.51 0 0 1 2 .87 4.15 4.15 0 0 1 1 2.56 34.26 34.26 0 0 1 .3 4.78c0 1.8 0 3.65-.1 5.58s-.1 3.68-.1 5.23V70a27.13 27.13 0 0 1-.6 5.71 34.15 34.15 0 0 1-2.45 8.41 15.76 15.76 0 0 1-4 5.45 14.67 14.67 0 0 1-6 3 35 35 0 0 1-8.62.92 30.7 30.7 0 0 1-7.65-.87 13.5 13.5 0 0 1-5.81-3.06 15.57 15.57 0 0 1-3.94-6.08 33.66 33.66 0 0 1-1.93-10c-.12-2-.21-4.1-.24-6.18s0-4.14 0-6.21V39.48c0-1.11.12-2.21.2-3.28s.21-2 .34-2.87a7 7 0 0 1 .48-1.84 2.85 2.85 0 0 1 1.93-1.76c1.09-.32 2.2-.59 3.3-.8a22.39 22.39 0 0 0 3.11-.72 2.34 2.34 0 0 0 1.82-2.38 1.87 1.87 0 0 0-1.73-1.91 12 12 0 0 0-2.1-.21c-2.32 0-4.64.1-6.91.31a72.44 72.44 0 0 1-13.09 0c-2.13-.21-4.3-.31-6.43-.31a2.35 2.35 0 0 0-2.63 2.52 1.86 1.86 0 0 0 .82 1.6 4 4 0 0 0 1.55.65 8.23 8.23 0 0 0 1.58.2c.52 0 .94.06 1.29.06h1.1a3.45 3.45 0 0 1 2.6.91 5.69 5.69 0 0 1 1.37 2.42 12.66 12.66 0 0 1 .46 3.2c0 1.18.06 2.26.06 3.18 0 5.71-.08 11.38-.21 16.8-.13 5.69-.19 11.36-.19 16.86v3.7c0 .61 0 1.22.05 1.83s.09 1.23.14 1.84a23.4 23.4 0 0 0 3 9.85 19 19 0 0 0 6.1 6.32A25.06 25.06 0 0 0 879 99a48.33 48.33 0 0 0 9.85 1 64.32 64.32 0 0 0 8.91-.66A43.26 43.26 0 0 0 906.6 97a17.29 17.29 0 0 0 7.67-5.62 26.09 26.09 0 0 0 4-8.05 40.53 40.53 0 0 0 1.57-9.33c.18-3.21.26-6.33.26-9.23v-5.42c0-1.78-.1-3.56-.1-5.35V39.32a60.56 60.56 0 0 1 .35-6.41c.26-2.38.67-2.68.69-2.7a5 5 0 0 1 1.72-.41q1.5-.21 3.12-.57a12.87 12.87 0 0 0 2.93-1 2.44 2.44 0 0 0 1.55-2.26c0-.66-.32-1.54-1.82-2.07M999.61 74.35A3 3 0 0 0 997 75a12.84 12.84 0 0 0-1.51 2.38c-.75 1.31-1.59 2.76-2.59 4.38a46.24 46.24 0 0 1-3.22 4.65 11.77 11.77 0 0 1-3.21 3.05 17.77 17.77 0 0 1-3.28 1.42 26.85 26.85 0 0 1-5.48 1.31 22.09 22.09 0 0 1-6.19.06 11.11 11.11 0 0 1-5.45-2.15 3.86 3.86 0 0 1-.91-1.85 22.07 22.07 0 0 1-.57-3.43c-.12-1.23-.22-2.61-.27-4s0-2.77 0-4V73c0-6.09 0-12 .1-17.88s.11-12 .11-17.89v-1.87c0-.74.1-1.44.19-2.14a10.62 10.62 0 0 1 .48-2 2.83 2.83 0 0 1 .87-1.34 4.22 4.22 0 0 1 2.27-.82l3.21-.29a14.3 14.3 0 0 0 2.86-.54 2.08 2.08 0 0 0 1.6-2.13 2.84 2.84 0 0 0-1.12-2.07l-.17-.15h-.23c-2.81 0-5.36.07-7.59.22a86.59 86.59 0 0 1-13.8-.1 68.56 68.56 0 0 0-6.9-.34 13.39 13.39 0 0 0-2.37.21 2 2 0 0 0-1.66 2.2 2.18 2.18 0 0 0 2.06 2.26l3.52.51a12.72 12.72 0 0 1 3.56.95 3.08 3.08 0 0 1 1.78 2.5 21.92 21.92 0 0 1 .39 4.41v29.18c0 1.88.07 4.09.21 6.8s.19 5.33.19 7.83a54.74 54.74 0 0 1-.4 6.93 7.32 7.32 0 0 1-1.39 4 5.22 5.22 0 0 1-2.8 1.4c-1.1.15-2.16.26-3.14.34a10 10 0 0 0-2.67.47 2.2 2.2 0 0 0-1.4 2.34 2.35 2.35 0 0 0 .51 1.47 1.82 1.82 0 0 0 1.49.75c2.17 0 4.14-.07 5.82-.22l4.7-.39c1.51-.14 3.06-.26 4.7-.4s3.52-.19 5.71-.19a106.83 106.83 0 0 1 13.54.89 108.79 108.79 0 0 0 13.71.91c1 0 1.53-1.29 1.84-2.4.37-1.3.82-3 1.36-5.13s1.26-4.47 2.18-7.06a40.37 40.37 0 0 1 3.86-7.85l.16-.26-.13-.3a2.67 2.67 0 0 0-1.92-1.51M1031.44 47.58c.1-4.15.14-8.39.14-12.53 0-1.15 0-2.17.09-3.06a3.08 3.08 0 0 1 2.55-3 17.18 17.18 0 0 1 4.08-.39 9.06 9.06 0 0 0 2.6-.32 2.12 2.12 0 0 0 1.51-2.3 3 3 0 0 0-.24-1 2.36 2.36 0 0 0-.55-.9l-.18-.2h-9a27.78 27.78 0 0 0-2.94.17c-1 .09-2 .14-2.86.14-1.91 0-3.86-.1-5.81-.28a56.55 56.55 0 0 0-5.91-.31h-1.11a11.45 11.45 0 0 0-1.84.15 1.66 1.66 0 0 0-1.47 1.76 2.28 2.28 0 0 0 1.32 2.37 8.12 8.12 0 0 0 2.56.54c.91.08 1.87.19 2.85.36a4.14 4.14 0 0 1 2.22 1.1 6.24 6.24 0 0 1 .77 2.52 22.85 22.85 0 0 1 .29 3.63V48.1l-.12 35.07v2.09a27.82 27.82 0 0 1-.26 3.89 3.48 3.48 0 0 1-1.05 2.47 4.76 4.76 0 0 1-2.22 1.11c-1 .23-1.94.44-2.82.61a16.1 16.1 0 0 0-2.45.63 1.86 1.86 0 0 0-1.41 1.82 2.09 2.09 0 0 0 1.34 2.12 6.32 6.32 0 0 0 2.18.4h1.4a37.83 37.83 0 0 0 5.49-.36 47.2 47.2 0 0 1 10.88-.07 41.34 41.34 0 0 0 8.68.18 2.09 2.09 0 0 0 2-2.27 1.81 1.81 0 0 0-1.54-1.79 25.85 25.85 0 0 0-2.63-.57l-3-.55a4.7 4.7 0 0 1-2.16-1 4.17 4.17 0 0 1-1.25-2.72 29.63 29.63 0 0 1-.25-3.53V60.1c0-4.28 0-8.48.16-12.52M1131.17 93.8a20 20 0 0 0-2.54-.56 13.18 13.18 0 0 1-4.45-2 27.58 27.58 0 0 1-4-3.29c-1.28-1.24-2.52-2.59-3.72-4s-2.38-2.8-3.53-4.1c-.47-.46-1.36-1.4-2.7-2.84l-4.59-5c-1.74-1.87-3.57-3.85-5.52-6s-3.7-4.06-5.34-5.89-3-3.42-4.2-4.76-1.51-1.81-1.72-2.09a24.42 24.42 0 0 1 1.77-1.86c1.24-1.22 2.77-2.65 4.57-4.31s3.74-3.44 5.88-5.35 4.13-3.61 6.11-5.28 3.63-3 5.14-4.26a19 19 0 0 1 3-2.14 8.53 8.53 0 0 1 2.85-.89c1.15-.16 2.26-.32 3.34-.45a12 12 0 0 0 2.84-.64 2.09 2.09 0 0 0 1.49-2.08 2 2 0 0 0-1-1.83 3.73 3.73 0 0 0-1.81-.47c-1.71 0-3.39.05-5 .14a89 89 0 0 1-10.46 0c-2.72-.14-5.41-.18-8.41-.11a2.65 2.65 0 0 0-2.54 1.75l-.06 1c0 .56.26 1.57 1.93 1.81a26.75 26.75 0 0 0 3.13.26c1.1 0 2.1.12 3 .23s.86.46.86.61 0 .44-1.2 1.79c-.9 1.09-2 2.33-3.43 3.75s-3 2.94-4.65 4.53-3.32 3.13-4.85 4.55-2.92 2.73-4.14 3.85-2.1 2-2.59 2.43l-1.3 1.3a22.9 22.9 0 0 1-1.74 1.55 11.8 11.8 0 0 1-2 1.34 4.22 4.22 0 0 1-1.34.5 4.64 4.64 0 0 0 .14-1V34.25c0-2.77.57-3.92 1.06-4.37a4.38 4.38 0 0 1 2.55-1.25 15 15 0 0 1 3.07 0 2.59 2.59 0 0 0 2.63-.93 3 3 0 0 0 .38-1.08 7.58 7.58 0 0 1 .24-.79l.08-.26c0-.4-.16-1.12-1.31-1.5a6.47 6.47 0 0 0-1.91-.32h-.89a43.39 43.39 0 0 0-4.59.24 35.38 35.38 0 0 1-4.42.25H1072a40.05 40.05 0 0 1-5-.3 46.77 46.77 0 0 0-5.18-.31h-1.11a7.36 7.36 0 0 0-2 .3 1.64 1.64 0 0 0-1.42 1.64 2.42 2.42 0 0 0 1 2.2 5.12 5.12 0 0 0 2.17.76 15.6 15.6 0 0 0 2.5.1 8.25 8.25 0 0 1 2.14.15 2 2 0 0 1 1.86 1.49 12.12 12.12 0 0 1 .43 3.1v12.19c0 6.83-.05 13.49-.15 19.88-.1 6.68-.16 13.36-.16 19.88 0 .58 0 1.24-.09 2a14.94 14.94 0 0 1-.37 2.14 8.1 8.1 0 0 1-.8 1.9 2.61 2.61 0 0 1-1.2 1.13 5.27 5.27 0 0 1-2 .38c-1 0-1.89.11-2.79.21a8.54 8.54 0 0 0-2.52.65 2.23 2.23 0 0 0-1.36 2.2 1.84 1.84 0 0 0 1.66 1.92 13.64 13.64 0 0 0 2.15.2c2.85 0 5.61-.11 8.16-.3s5.29-.3 8-.3a36.75 36.75 0 0 1 4.11.24 35.24 35.24 0 0 0 4.21.26h1.3a4.76 4.76 0 0 0 2.18-.52 2.19 2.19 0 0 0 1.24-2.1 1.65 1.65 0 0 0-1-1.71 5.36 5.36 0 0 0-1.74-.35H1084.21a1.17 1.17 0 0 1-.66-.13l-.19-.13h-.23a4 4 0 0 1-2.87-.59 4.67 4.67 0 0 1-1.55-2.11 12.54 12.54 0 0 1-.66-3.16 34.84 34.84 0 0 1-.15-3.25V64.8c0-.93 0-1.82.06-2.62a14.48 14.48 0 0 1 .13-1.65.33.33 0 0 1 0-.14 6.58 6.58 0 0 0 1.59.29 17.06 17.06 0 0 1 3 2.3c1.35 1.26 2.84 2.72 4.44 4.39s3.29 3.49 5 5.44 3.41 3.84 5 5.7 3 3.58 4.37 5.11l3 3.52c.15.23.4.58.78 1.07s.75.94 1.15 1.49.76 1 1.09 1.46a4.32 4.32 0 0 1 .6.81 3.1 3.1 0 0 1 .31.6 3.32 3.32 0 0 1-1.32.24h-1.78a17.14 17.14 0 0 0-2.81.17 9 9 0 0 0-2.62.76 2.19 2.19 0 0 0-1.4 2c0 1.07.33 1.76 1 2a4.76 4.76 0 0 0 1.85.3c2.55 0 5.17-.07 7.74-.24a92.52 92.52 0 0 1 13.93 0c2.05.17 4.19.24 6.36.24a13 13 0 0 0 1.64-.15 1.67 1.67 0 0 0 1.57-1.53 2.2 2.2 0 0 0-1.52-2.57M1174 26.83a21.19 21.19 0 0 1 7 1.14 24.73 24.73 0 0 1 9.52 6 33.56 33.56 0 0 1 6.75 9.8 50.91 50.91 0 0 1 3.86 12.05 63 63 0 0 1 .88 11.91 36.81 36.81 0 0 1-2.01 11.73 24.51 24.51 0 0 1-6.2 9.54c-2.76 2.69-6.59 4.46-11.39 5.31a30.52 30.52 0 0 1-5.37.52 20.5 20.5 0 0 1-7.61-1.39 25.09 25.09 0 0 1-9.48-6.65 35.77 35.77 0 0 1-6.36-10.24 52.94 52.94 0 0 1-3.41-11.7 60.22 60.22 0 0 1-1.06-11.75 33.74 33.74 0 0 1 2-11.37 23.13 23.13 0 0 1 6.08-9.17c2.77-2.59 6.66-4.35 11.53-5.26a28.76 28.76 0 0 1 5.27-.5m29.08 5.7a39.16 39.16 0 0 0-12.56-7.82 41.42 41.42 0 0 0-15.2-2.79 38.46 38.46 0 0 0-15.35 3 36.76 36.76 0 0 0-20.16 20.82 42.23 42.23 0 0 0-2.85 15.65 42.25 42.25 0 0 0 2.78 15.49 38.09 38.09 0 0 0 7.78 12.28 35.75 35.75 0 0 0 12 8.09 39.43 39.43 0 0 0 15.2 2.91 38.6 38.6 0 0 0 15.66-3.22 41.33 41.33 0 0 0 12.77-8.62 40.23 40.23 0 0 0 8.55-12.72 39.22 39.22 0 0 0 3.1-15.42 37.14 37.14 0 0 0-11.72-27.65M1264.45 26.83a21.24 21.24 0 0 1 7 1.14 25.1 25.1 0 0 1 9.54 6 33.89 33.89 0 0 1 6.73 9.8 50.46 50.46 0 0 1 3.86 12.05 63.61 63.61 0 0 1 .9 11.91 37 37 0 0 1-2.08 11.78 24.62 24.62 0 0 1-6.16 9.57c-2.75 2.69-6.6 4.46-11.39 5.31a30.67 30.67 0 0 1-5.4.52 20.37 20.37 0 0 1-7.57-1.39 25.09 25.09 0 0 1-9.5-6.65 35.74 35.74 0 0 1-6.35-10.24 53.62 53.62 0 0 1-3.43-11.7 61 61 0 0 1-1.05-11.75 34.71 34.71 0 0 1 2-11.37 23.29 23.29 0 0 1 6.1-9.17c2.78-2.59 6.66-4.35 11.53-5.26a28.68 28.68 0 0 1 5.27-.5m29.08 5.7a39.1 39.1 0 0 0-12.53-7.87 41.26 41.26 0 0 0-15.19-2.79 38.54 38.54 0 0 0-15.36 3 36.78 36.78 0 0 0-20.15 20.82 42.44 42.44 0 0 0-2.86 15.65 42.25 42.25 0 0 0 2.79 15.49 37.64 37.64 0 0 0 7.8 12.28 35.33 35.33 0 0 0 12 8.09 39.52 39.52 0 0 0 15.21 2.91 38.7 38.7 0 0 0 15.68-3.22 41.31 41.31 0 0 0 12.74-8.62 40.23 40.23 0 0 0 8.55-12.72 39.11 39.11 0 0 0 3.1-15.42 37.83 37.83 0 0 0-3.15-15.57 37.14 37.14 0 0 0-8.56-12.08M1372.36 75.86a2.73 2.73 0 0 0-1.93-1.51 2.9 2.9 0 0 0-2.58.63 12.83 12.83 0 0 0-1.51 2.37c-.73 1.3-1.58 2.76-2.58 4.39a44.43 44.43 0 0 1-3.21 4.64 11.62 11.62 0 0 1-3.22 3.05 17.91 17.91 0 0 1-3.27 1.42 28.25 28.25 0 0 1-5.5 1.32 22.87 22.87 0 0 1-6.19 0 11 11 0 0 1-5.45-2.15 4 4 0 0 1-.9-1.86 24.08 24.08 0 0 1-.57-3.42c-.13-1.24-.22-2.6-.27-4s0-2.77 0-4V73q0-9.12.08-17.88c.08-6 .12-12 .12-17.89v-1.87c0-.74.1-1.44.2-2.14a11.94 11.94 0 0 1 .47-2 2.89 2.89 0 0 1 .86-1.34 4.19 4.19 0 0 1 2.27-.81l3.22-.3a14.84 14.84 0 0 0 2.87-.54 2.07 2.07 0 0 0 1.59-2.13 2.79 2.79 0 0 0-1.11-2.06l-.17-.15h-.23c-2.82 0-5.37.06-7.6.21a87.79 87.79 0 0 1-13.84-.17 68.4 68.4 0 0 0-6.9-.35 15.93 15.93 0 0 0-2.37.21A2 2 0 0 0 1313 26a2.16 2.16 0 0 0 2 2.26c1 .17 2.22.33 3.53.51a12.91 12.91 0 0 1 3.56.95 3.09 3.09 0 0 1 1.77 2.52 21.37 21.37 0 0 1 .4 4.38v29.26c0 1.87.07 4.16.2 6.8s.19 5.28.19 7.83a56.77 56.77 0 0 1-.39 6.93 7.25 7.25 0 0 1-1.4 4 5.22 5.22 0 0 1-2.8 1.4c-1.1.15-2.15.26-3.13.34a10.37 10.37 0 0 0-2.68.47 2.23 2.23 0 0 0-1.4 2.35 2.29 2.29 0 0 0 .52 1.46 1.82 1.82 0 0 0 1.48.75c2.19 0 4.14-.07 5.82-.21l4.7-.4c1.51-.14 3.06-.26 4.7-.4s3.53-.19 5.72-.19a109 109 0 0 1 13.54.89 108.46 108.46 0 0 0 13.7.9c1 0 1.53-1.28 1.85-2.39q.54-2 1.34-5.13c.52-2.1 1.27-4.47 2.19-7.06a40.08 40.08 0 0 1 3.86-7.85l.17-.25ZM94.79 412.76c.06-2.53.11-5.08.11-7.66 0-.76 0-1.45.06-2a1.24 1.24 0 0 1 .19-.64 1.3 1.3 0 0 1 .7-.4 8.34 8.34 0 0 1 2.3-.24 8 8 0 0 0 2.1-.27 2.67 2.67 0 0 0 1.93-2.74 2.71 2.71 0 0 0-.91-1.92l-.47-.5h-6.56c-.68 0-1.39 0-2.1.12a21.93 21.93 0 0 1-5-.09 26.86 26.86 0 0 0-3.66-.23h-.75a8.36 8.36 0 0 0-1.44.13 2.35 2.35 0 0 0-2 2.42 2.79 2.79 0 0 0 1.67 2.75 6.91 6.91 0 0 0 2.12.45 15.14 15.14 0 0 1 1.79.23 2.06 2.06 0 0 1 .69.24 4 4 0 0 1 .29 1.16 15.29 15.29 0 0 1 .18 2.24v8.06l-.07 6.23a21.44 21.44 0 0 1-.16 2.47c-.07.64-.24.82-.3.88a2 2 0 0 1-1 .44c-.63.15-1.25.29-1.84.4a12.5 12.5 0 0 0-1.82.48 2.49 2.49 0 0 0-1.8 2.39 2.64 2.64 0 0 0 1.73 2.61 5.35 5.35 0 0 0 1.89.34h.94a18 18 0 0 0 1.91-.08c.53 0 1-.11 1.5-.17s.81-.11 1.27-.16a29.22 29.22 0 0 1 5.19.14 29.82 29.82 0 0 0 6.11.09 2.63 2.63 0 0 0 2.47-2.77 2.43 2.43 0 0 0-2-2.39 16.14 16.14 0 0 0-1.87-.41c-.65-.11-1.31-.24-2-.38a1.71 1.71 0 0 1-.87-.33 1.26 1.26 0 0 1-.36-.71 14.56 14.56 0 0 1-.23-1.69v-.88c0-2.55 0-5.07.1-7.57M138.32 401.56a13.54 13.54 0 0 0-4.58-3.27 14.92 14.92 0 0 0-9.85-.65 17.87 17.87 0 0 0-3.39 1.36c-.3.15-.57.31-.88.49a36.63 36.63 0 0 1 2.6-5.65 32.38 32.38 0 0 1 7-8.42c.65-.57 1.29-1.08 1.95-1.58s1.33-.93 1.94-1.29l.88-.41c.5-.22 1-.43 1.41-.67a8.83 8.83 0 0 0 1.41-.93 2.63 2.63 0 0 0 1.13-2 2.74 2.74 0 0 0-.92-2 6.46 6.46 0 0 0-1-.74l-.47-.26h-.52a8.18 8.18 0 0 0-2.19.59c-.69.28-1.27.54-1.79.77a43.7 43.7 0 0 0-9 5.64 42.5 42.5 0 0 0-7.37 7.68 36.44 36.44 0 0 0-5 9.36 31.4 31.4 0 0 0-1.82 10.7 26.43 26.43 0 0 0 .6 5.65 21.07 21.07 0 0 0 1.92 5.26 17.11 17.11 0 0 0 3.35 4.47 16.55 16.55 0 0 0 5 3.27 18.63 18.63 0 0 0 7.1 1.48 15 15 0 0 0 6.75-1.53 16.27 16.27 0 0 0 5.15-4.05 19.61 19.61 0 0 0 3.27-5.72 18.94 18.94 0 0 0 1.18-6.67 18 18 0 0 0-.95-5.95 14.43 14.43 0 0 0-2.87-4.87M128.78 424a5.43 5.43 0 0 1-3.26.91 6.05 6.05 0 0 1-3.77-1.1 8.79 8.79 0 0 1-2.48-3.07 17.1 17.1 0 0 1-1.38-4.38 28.82 28.82 0 0 1-.4-4.68 21.74 21.74 0 0 1 .09-2.19l.17-1.7c.32-.34.7-.73 1.12-1.12a16.35 16.35 0 0 1 2-1.57 13.32 13.32 0 0 1 2.23-1.22 6.39 6.39 0 0 1 5.57.37 7.28 7.28 0 0 1 2.34 2.21 10.83 10.83 0 0 1 1.42 3.34 15.59 15.59 0 0 1 .49 4 19.69 19.69 0 0 1-.43 4 12.78 12.78 0 0 1-1.37 3.67 8.12 8.12 0 0 1-2.31 2.56M170.05 417.54a12.38 12.38 0 0 0-6.4-3.16 33.43 33.43 0 0 0 2.25-2.56 25.61 25.61 0 0 0 2.43-3.7 8.54 8.54 0 0 0 1.13-4 9 9 0 0 0-.94-4.28 8.47 8.47 0 0 0-2.43-2.87 9.48 9.48 0 0 0-3.29-1.59 11.37 11.37 0 0 0-7.39.34 16 16 0 0 0-3.32 1.79 11.88 11.88 0 0 0-2.55 2.36 4.49 4.49 0 0 0-1.1 3.23 3 3 0 0 0 .93 1.7 2.18 2.18 0 0 0 1.45.57 2.11 2.11 0 0 0 1.51-.69 23.17 23.17 0 0 1 2.68-2.63 4 4 0 0 1 5 .38 4.82 4.82 0 0 1 1.12 3.59 5.77 5.77 0 0 1-.84 2.85 16 16 0 0 1-2.39 3.17 24.39 24.39 0 0 1-3.15 2.78 30.06 30.06 0 0 1-3 2l-1.32.63a2.83 2.83 0 0 0-1.84 2.54 2.61 2.61 0 0 0 2.67 2.81 3.76 3.76 0 0 0 2.11-.87 7.61 7.61 0 0 1 1.15-.66 3.43 3.43 0 0 1 1.68-.46h.31c.93.09 1.82.21 2.65.37a6.22 6.22 0 0 1 2.35 1 7.12 7.12 0 0 1 1.76 1.87 9.7 9.7 0 0 1 1.15 2.56 9.45 9.45 0 0 1 .42 2.79 11 11 0 0 1-1.07 4.85 13.48 13.48 0 0 1-3 3.91 19.8 19.8 0 0 1-4.57 3.05 35.09 35.09 0 0 1-5.5 2.11 2.11 2.11 0 0 0-1.47.88 2.86 2.86 0 0 0-.52 1.34 2.46 2.46 0 0 0 .42 1.69 2.3 2.3 0 0 0 1.94.94 21.82 21.82 0 0 0 7.84-1.74 27.76 27.76 0 0 0 7.27-4.44 25.54 25.54 0 0 0 5.51-6.54 16.13 16.13 0 0 0 2.24-8.14 15.23 15.23 0 0 0-1-5.4 12.7 12.7 0 0 0-2.94-4.4M209.16 417a3.39 3.39 0 0 0-1.95-1.78 2.71 2.71 0 0 0-3.31 1L202 419c-.47.67-.94 1.36-1.46 2.07s-1 1.35-1.38 1.86a3.7 3.7 0 0 1-1.51.51 25.78 25.78 0 0 1-3.92.48 35.21 35.21 0 0 1-3.56 0c.4-.41.85-.88 1.31-1.39.92-1 1.89-2.09 2.88-3.3s2-2.47 2.89-3.74a42.93 42.93 0 0 0 2.37-3.72 13.89 13.89 0 0 0 1.48-3.43c1.07-3.87.71-7.08-1.07-9.55s-4.64-3.74-8.43-3.74c-.71 0-1.4 0-2.09.07a10.76 10.76 0 0 0-2.42.47 11.05 11.05 0 0 0-2.61 1.32 16.52 16.52 0 0 0-2.74 2.47 8.88 8.88 0 0 0-.72.87l-.68 1a8.69 8.69 0 0 0-.79 1.3 3.68 3.68 0 0 0-.38 1.48 2.54 2.54 0 0 0 1.06 2.09 2.4 2.4 0 0 0 2.49.19 3.61 3.61 0 0 0 1.49-1.55 6.62 6.62 0 0 1 .83-1.17 4 4 0 0 1 1.33-.93 5.74 5.74 0 0 1 2.55-.41c2.53 0 3.23 1.05 3.46 1.41.63 1 .58 2.42-.14 4.32a40.83 40.83 0 0 1-1.93 3.88c-.85 1.47-1.81 3-2.86 4.57s-2.24 3.17-3.48 4.77-2.48 3.07-3.63 4.35a2.59 2.59 0 0 0-.82 1.86 2.73 2.73 0 0 0 2.61 3.06h.48a2.47 2.47 0 0 0 1.87-1c1 0 2.18 0 3.42-.05h3.85a58.58 58.58 0 0 1 6.88.55c1.92.29 3.56.5 4.78.59h.28a2.22 2.22 0 0 0 2.18-2.21c0-.47.13-1.17.25-2.06a24.58 24.58 0 0 1 .8-3.29 18.44 18.44 0 0 1 2.14-4.41l.47-.75ZM13.24 99.13l133.09-63.37L279.4 99.13H13.24zM6.91 111.78h278.8v12.68H6.91zM6.91 308.24h76.06v38.03H6.91zM209.69 308.24h76.03v38.03h-76.03zM108.33 308.24h25.33v38.03h-25.33zM159 308.24h25.33v38.03H159zM29.09 137.12l3.17 158.45H6.93l3.15-158.45h19.01zM79.81 137.12l3.16 158.45H57.62l3.16-158.45h19.03zM130.49 137.12l3.16 158.45H108.3l3.17-158.45h19.02zM181.17 137.12l3.16 158.45H159l3.14-158.45h19.03zM231.88 137.12l3.16 158.45h-25.35l3.19-158.45h19zM282.56 137.12l3.17 158.45H260.4l3.14-158.45h19.02z" class="cls-1"/><path d="M146.32 4.08 6.92 70.63v15.81l139.4-66.53 139.4 66.53V70.63L146.32 4.08z" class="cls-1"/></svg>